<?xml version="1.0" encoding="utf-8"?>
<!-- Generator: Adobe Illustrator 27.5.0, SVG Export Plug-In . SVG Version: 6.00 Build 0)  -->
<svg version="1.1" xmlns="http://www.w3.org/2000/svg" xmlns:xlink="http://www.w3.org/1999/xlink" x="0px" y="0px"
	 viewBox="0 0 500 500" style="enable-background:new 0 0 500 500;" xml:space="preserve">
<g id="BACKGROUND">
	<rect style="fill:#FFFFFF;" width="500" height="500"/>
</g>
<g id="OBJECT">
	<g>
		<g>
			<path style="fill:#EAE6FF;" d="M464.33,277.759c-7.37-20.546-18.975-26.799-30.013-39.978
				c-13.481-16.096-22.574-27.797-19.074-48.5c5.72-33.831,8.168-118.203-81.394-107.174c-32.101,3.953-57.469,28.553-75.923,53.109
				c-15.703,20.895-43.95,22.737-66.686,27.609c-27.935,5.985-56.392,15.027-82.238,28.274
				c-53.23,27.282-69.129,66.503-66.958,116.685c0.656,15.161,2.802,39.042,28.412,66.985
				c34.567,37.717,84.797,42.767,145.255,25.446c13.839-3.965,26.919-10.183,40.532-14.865c14.143-4.864,28.858-8.059,43.744-9.498
				c34.723-3.357,70.717,2.714,104.026-7.652c17.613-5.482,33.788-15.514,46.526-28.855
				C466.45,322.679,472.109,299.445,464.33,277.759z"/>
		</g>
		<g>
			<g>
				<g>
					<path style="fill:#C2C1DB;" d="M442.577,369.158c0,2.029-9.199,3.674-20.546,3.674c-11.347,0-20.546-1.645-20.546-3.674
						c0-2.029,9.199-3.674,20.546-3.674C433.378,365.484,442.577,367.129,442.577,369.158z"/>
				</g>
				<g>
					<g>
						<g>
							<g>
								<path style="fill:#614FB3;" d="M430.861,370.172c-4.372,1.324-11.138,1.231-15.885,0c-1.125-0.292-2.163-0.821-2.39-1.96
									l-4.516-22.656h29.698l-4.516,22.656C433.024,369.351,431.973,369.835,430.861,370.172z"/>
							</g>
						</g>
						<g>
							<path style="fill:#3E327A;" d="M437.767,345.555c0-1.198-6.627-2.169-14.803-2.169c-8.175,0-14.803,0.971-14.803,2.169
								c0,1.198,6.627,2.169,14.803,2.169C431.14,347.724,437.767,346.753,437.767,345.555z"/>
						</g>
						<g>
							<g>
								<path style="fill:#463AA0;" d="M437.148,348.659c-3.097,2.542-6.491,4.721-10.098,6.466
									c-1.022,0.495-2.109,0.993-2.773,1.914c-0.665,0.921-0.689,2.414,0.264,3.033c0.402,0.261,1.002,0.451,1.001,0.931
									c0,0.212-0.135,0.399-0.274,0.559c-1.004,1.147-2.524,1.695-3.694,2.673c-1.17,0.978-1.924,2.862-0.893,3.985
									c0.463,0.505,1.037,0.933,1.678,1.177c0.84,0.319,1.024,1.73,1.354,1.73c4.448,0.004,7.148-0.955,7.148-0.955
									c1.162,0,2.163-0.821,2.39-1.96L437.148,348.659z"/>
							</g>
						</g>
					</g>
					<g>
						<g>
							<path style="fill:#58BB84;" d="M428.435,232.587c0.952-3.92,0.749-7.525,0.094-11.506c-0.656-3.98-2.409-7.731-6.375-6.992
								c-3.796,0.707-5.162,5.324-5.38,8.654c-0.302,4.619,1.182,9.057,1.686,13.602c0.764,6.883-0.814,14.407-2.619,21.093
								c-1.447,5.363-3.254,9.7-4.661,15.964c-0.865,3.851-1.103,9.203,0.158,14.383c1.273,5.232,9.59,23.949,11.206,43.146
								c0.768-24.551,5.644-31.434,7.265-39.809c0.669-3.457,1.402-6.883,1.091-10.39c-0.794-8.942-3.273-17.641-4.763-26.494
								C424.649,245.384,426.186,241.855,428.435,232.587z"/>
						</g>
					</g>
					<g>
						<g>
							<path style="fill:#614FB3;" d="M423.43,346.076c0.015,0,0.03-0.001,0.045-0.002c0.286-0.024,0.499-0.277,0.474-0.563
								c-3.79-44.077-0.76-119.677-0.729-120.435c0.012-0.287-0.212-0.53-0.499-0.541c-0.279-0.012-0.53,0.212-0.542,0.499
								c-0.031,0.759-3.064,76.424,0.732,120.567C422.935,345.871,423.162,346.076,423.43,346.076z"/>
						</g>
						<g>
							<path style="fill:#614FB3;" d="M421.595,300.791c0.008,0,0.016,0,0.024,0c0.287-0.013,0.509-0.256,0.497-0.544
								c-0.582-12.96-6.5-16.981-6.752-17.146c-0.241-0.158-0.563-0.09-0.721,0.15c-0.157,0.24-0.09,0.562,0.149,0.72l0,0
								c0.058,0.038,5.728,3.945,6.284,16.322C421.088,300.573,421.319,300.791,421.595,300.791z"/>
						</g>
						<g>
							<path style="fill:#614FB3;" d="M421.517,291.398c0.273,0,0.503-0.213,0.519-0.49c0.778-13.156,5.66-15.002,5.71-15.019
								c0.269-0.094,0.416-0.388,0.325-0.658c-0.09-0.271-0.378-0.419-0.651-0.331c-0.228,0.073-5.597,1.964-6.424,15.947
								c-0.017,0.287,0.202,0.533,0.489,0.55C421.496,291.398,421.507,291.398,421.517,291.398z"/>
						</g>
						<g>
							<path style="fill:#614FB3;" d="M421.563,275.23c0.017,0,0.034,0,0.05-0.003c0.286-0.027,0.496-0.282,0.468-0.568
								c-0.98-10.202-4.214-13.163-4.35-13.283c-0.216-0.19-0.545-0.17-0.735,0.046c-0.19,0.215-0.17,0.542,0.044,0.733
								c0.044,0.04,3.074,2.91,4.005,12.604C421.072,275.029,421.298,275.23,421.563,275.23z"/>
						</g>
					</g>
					<g>
						<path style="fill:#48AA6F;" d="M455.845,268.778c1.143-2.83,6.066-13.533,5.264-17.186c-2.118,0.844-8.011,9.977-9.948,14.067
							c-2.354,4.755-6.942,11.815-10.089,16.14c-2.528,3.461-3.964,4.37-5.857,8.261c-1.397,2.76-3.57,14.224-3.725,18.346
							c-0.332,7.698,1.663,9.223-0.587,23.758c4.803-18.28,15.039-29.168,16.695-34.583c1.901-6.177,1.956-8.686,3.42-15.29
							C452.566,275.706,452.23,277.371,455.845,268.778z"/>
					</g>
					<g>
						<g>
							<path style="fill:#614FB3;" d="M428.888,346.595c-0.286-0.023-0.5-0.274-0.478-0.56c1.427-18.08,8.279-39.096,13.777-53.541
								c5.527-14.524,11.829-27.859,12.707-28.216c0.182-0.073,0.412-0.037,0.56,0.092c0.216,0.19,0.238,0.519,0.048,0.735
								c-0.037,0.043-0.08,0.077-0.126,0.105c-1.987,2.528-23.343,48.152-25.928,80.909c-0.022,0.273-0.25,0.479-0.519,0.479
								C428.916,346.596,428.903,346.596,428.888,346.595z M454.848,265.21c-0.027-0.016-0.053-0.035-0.078-0.056
								C454.795,265.176,454.822,265.194,454.848,265.21z M454.77,265.153C454.77,265.153,454.769,265.153,454.77,265.153
								C454.769,265.153,454.77,265.153,454.77,265.153z"/>
						</g>
						<g>
							<path style="fill:#614FB3;" d="M436.012,312.717c0.231,0,0.442-0.156,0.503-0.39c2.416-9.308-0.437-14.014-0.909-14.313
								c-0.242-0.154-0.564-0.082-0.718,0.162c-0.124,0.195-0.101,0.441,0.038,0.61c0.137,0.192,2.923,4.257,0.581,13.28
								c-0.072,0.278,0.095,0.562,0.373,0.635C435.925,312.712,435.969,312.717,436.012,312.717z"/>
						</g>
						<g>
							<path style="fill:#614FB3;" d="M438.104,305.855c0.207,0,0.403-0.125,0.484-0.329c3.518-8.875,7.212-9.284,7.621-9.301
								c0.244-0.01,0.463-0.19,0.506-0.431l-0.124-0.549l-0.421-0.06c-0.785,0.033-4.867,0.668-8.55,9.958
								c-0.106,0.267,0.025,0.57,0.292,0.676C437.975,305.844,438.04,305.855,438.104,305.855z"/>
						</g>
						<g>
							<path style="fill:#614FB3;" d="M442.365,294.059c0.231,0,0.442-0.154,0.503-0.388c1.96-7.427,0.771-10.803,0.29-10.996
								c-0.268-0.106-0.57,0.023-0.677,0.29c-0.06,0.15-0.045,0.311,0.027,0.443c0.074,0.17,1.208,2.968-0.647,9.997
								c-0.074,0.278,0.093,0.563,0.37,0.636C442.277,294.054,442.321,294.059,442.365,294.059z"/>
						</g>
					</g>
					<g>
						<g>
							<path style="fill:#58BB84;" d="M396.13,292.031c-1.481-1.72-8.138-7.696-11.101-7.406c0.346,1.672,5.402,7.558,7.409,9.993
								c2.532,2.787,5.295,8.041,6.372,11.531c0.884,2.8,0.689,3.991,1.868,6.569c0.899,1.765,5.545,7.813,7.266,10.023
								c3.215,4.017,6.748,5.474,10.151,15.495c-2.272-13.089-4.101-25.834-6.592-29.622c-2.726-4.119-4.296-5.289-7.953-8.81
								C399.775,296.403,400.897,297.135,396.13,292.031z"/>
						</g>
					</g>
					<g>
						<g>
							<path style="fill:#614FB3;" d="M420.014,346.596c0.034,0,0.069-0.004,0.104-0.01c0.282-0.057,0.464-0.332,0.407-0.614
								c-2.516-12.401-7.988-26.64-14.28-37.161c-4.759-8.37-10.02-14.381-12-16.644c-0.304-0.347-0.592-0.677-0.695-0.81
								c-0.095-0.246-0.367-0.384-0.624-0.313c-0.173,0.048-0.313,0.185-0.364,0.356c-0.095,0.316-0.076,0.337,0.9,1.452
								c1.961,2.241,7.172,8.194,11.884,16.483c6.242,10.436,11.665,24.551,14.159,36.844
								C419.554,346.426,419.772,346.596,420.014,346.596z"/>
						</g>
						<g>
							<path style="fill:#614FB3;" d="M412.57,323.002c0.076,0,0.153-0.017,0.226-0.052c0.259-0.125,0.367-0.437,0.242-0.696
								c-2.918-6.032-6.939-6.615-7.716-6.671h-0.406l-0.168,0.536c0.01,0.266,0.234,0.484,0.5,0.503
								c0.414,0.029,4.128,0.454,6.853,6.086C412.191,322.893,412.377,323.002,412.57,323.002z"/>
						</g>
						<g>
							<path style="fill:#614FB3;" d="M410.463,318.362c0.066,0,0.134-0.013,0.199-0.04c0.266-0.109,0.392-0.414,0.282-0.68
								c-2.572-6.227-1.044-8.541-0.925-8.705c0.153-0.146,0.208-0.377,0.12-0.583c-0.114-0.264-0.422-0.384-0.684-0.273
								c-0.03,0.013-2.666,2.226,0.527,9.958C410.065,318.241,410.259,318.362,410.463,318.362z"/>
						</g>
						<g>
							<path style="fill:#614FB3;" d="M406.363,310.601c0.109,0,0.22-0.035,0.314-0.106c0.229-0.174,0.274-0.5,0.1-0.73
								c-3.023-3.985-5.496-4.589-6.181-4.679l-0.415,0.117l-0.193,0.496c0.044,0.219,0.251,0.39,0.472,0.42
								c0.416,0.054,2.637,0.518,5.488,4.276C406.051,310.53,406.206,310.601,406.363,310.601z"/>
						</g>
					</g>
				</g>
			</g>
			<g>
				<ellipse style="fill:#C2C1DB;" cx="257.191" cy="369.402" rx="146.276" ry="7.67"/>
				<ellipse style="fill:#C2C1DB;" cx="91.79" cy="380.216" rx="23.107" ry="5.825"/>
				<ellipse style="fill:#C2C1DB;" cx="162.881" cy="380.216" rx="23.107" ry="5.825"/>
				<ellipse style="fill:#C2C1DB;" cx="211.192" cy="380.216" rx="29.954" ry="5.825"/>
				<ellipse style="fill:#C2C1DB;" cx="393.571" cy="382.219" rx="48.051" ry="5.825"/>
				<g>
					<g>
						<g>
							<path style="fill:#3E327A;" d="M97.152,372.928c0,0-0.704,1.308-0.581,2.412c0.132,1.186,3.454,5.48,5.125,5.533
								c1.74,0.056,5.046,0.109,5.207-0.3c0.236-0.6-0.957-1.526-1.987-2.166c-0.86-0.534-1.611-1.224-2.189-2.055
								c-1.108-1.594-2.488-3.576-2.488-3.576L97.152,372.928z"/>
							<path style="fill:#3E327A;" d="M96.571,375.177c0,0,0.017,4.298,0.341,5.507l0.886,0.041c0,0,0.616-4.415,0.673-5.03
								C98.527,375.079,96.571,375.177,96.571,375.177z"/>
						</g>
						<path style="fill:#FBD4AD;" d="M103.966,328.676c0.319-4.479-0.163-23.699-1.582-25.572c-0.73-0.964-9.813,0.02-9.813,0.105
							c0.01,3.963,2.318,47.479,2.573,50.503c0.255,3.025,2.067,16.487,2.067,16.488l-0.06,2.728c0,0,3.998,5.056,5.244,4.43
							c0.568-0.285-2.158-4.581-2.158-4.581l0.16-2.717C100.399,370.061,103.648,333.154,103.966,328.676z"/>
						<g>
							<path style="fill:#3E327A;" d="M82.59,372.606c0,0-0.81,1.246-0.779,2.356c0.033,1.194,2.988,5.747,4.649,5.939
								c1.729,0.2,5.02,0.526,5.214,0.132c0.285-0.578-0.828-1.6-1.801-2.323c-0.813-0.604-1.504-1.353-2.011-2.23
								c-0.973-1.679-2.183-3.769-2.183-3.769L82.59,372.606z"/>
							<path style="fill:#3E327A;" d="M81.825,374.799c0,0-0.338,4.285-0.116,5.516l0.879,0.114c0,0,0.98-4.35,1.087-4.958
								C83.782,374.864,81.825,374.799,81.825,374.799z"/>
						</g>
						<path style="fill:#FBD4AD;" d="M93.043,329.069c0.688-4.437,1.798-23.631,0.539-25.615c-0.647-1.021-9.781-0.792-9.788-0.707
							c-0.319,3.951-1.618,47.508-1.614,50.543c0.004,3.035,0.696,16.601,0.696,16.602l-0.286,2.714c0,0,3.567,5.369,4.86,4.849
							c0.59-0.237-1.771-4.744-1.771-4.744l0.385-2.694C86.064,370.018,92.355,333.507,93.043,329.069z"/>
					</g>
					<path style="fill:#FFD1AB;" d="M102.15,279.851c0,0,2.006,8.396,2.945,8.652c2.049,0.559,6.465,1.456,7.659,1.225
						c0,0,3.525-2.463,4.279-2.766c0.755-0.303,2.865-0.423,3.541-0.005c0.675,0.418,0.168,0.606,0.168,0.606
						s1.079,0.446,1.013,0.627c-0.066,0.181-1.213,0.081-1.502,0.044c-0.29-0.036-1.187,0.004-1.187,0.004s2.06,0.43,2.107,0.604
						c0.048,0.173-0.311,0.378-0.672,0.338c-0.36-0.039-1.494-0.27-2.089,0.08c0.105-0.017,0.215-0.035,0.332-0.051
						c0.611-0.084,1.252,0.111,1.082,0.287c-0.248,0.257-0.933,0.297-1.496,0.54c-0.335,0.144-0.979,0.597-1.298,0.88
						c-0.135,0.149-0.933,0.795-1.367,0.951c-0.621,0.223-1.319,0.269-2.147,0.056c-0.101-0.026-0.201-0.043-0.3-0.056
						c0.004,0.007,0.005,0.014,0.008,0.022c-0.023,0.027-8.721,1.548-11.227,0.298c-2.329-1.162-5.287-10.253-5.287-10.253
						L102.15,279.851z"/>
					<path style="fill:#5F4FB2;" d="M100.823,300.947c4.907,4.988,3.241,25.828,7.851,34.429c0,0-16.126,6.008-29.869,1.703
						c2.373-6.028,0.36-22.424,2.554-33.025C82.797,297.106,97.219,289.862,100.823,300.947z"/>
					<path style="fill:#FA988B;" d="M104.671,307.083c-2.136,5.12-25.322,2.901-25.322,2.901s4.77-16.549,3.91-21.598
						c-1.39,1.059-3.141,2.142-3.141,2.142s-2.049-4.538-0.81-10.526c1.238-5.985,7.156-7.543,7.156-7.543s9.566-1.763,14.542,4.111
						c1.008,1.19,2.04,3.413,2.04,3.413s0,0-0.49,0.245h-0.007c-0.999,0.498-2.507,1.253-2.507,1.278
						c0.671,0.838,1.152,1.657,1.231,2.349c0.111,0.931-0.208,2.014-0.67,3.137c-0.917,2.211-1.204,5.475-1.086,7.222
						C99.717,297.232,104.671,307.083,104.671,307.083z"/>
					<path style="fill:#FFD0BD;" d="M93.2,270.63c5.065-3.568,2.291-13.41,2.291-13.41l-5.492,0.596l-2.623,0.117l-0.656,4.02
						c0,0-2.107-1.411-2.278,0.272c-0.121,1.183,0.971,2.756,0.971,2.756s0.578,3.336,2.877,5.259
						c-0.084,0.448-0.469,1.707-0.707,2.139c0,0,2.659,3.365,4.74,4.208c2.082,0.843,1.211-2.855,1.211-2.855
						S93.237,271.957,93.2,270.63z"/>
					<path style="fill:#FFD1AB;" d="M93.2,270.63c5.065-3.568,2.291-13.41,2.291-13.41l-5.492,0.596l-2.623,0.117l-0.656,4.02
						c0,0-2.107-1.411-2.278,0.272c-0.121,1.183,0.971,2.756,0.971,2.756s0.578,3.336,2.877,5.259
						c-0.084,0.448-0.469,1.707-0.707,2.139c0,0,2.659,3.365,4.74,4.208c2.082,0.843,1.211-2.855,1.211-2.855
						S93.237,271.957,93.2,270.63z"/>
					<path style="opacity:0.6;fill:#FA988B;" d="M84.797,287.369c0,0,1.62-0.963,2.9-1.744l-1.507-5.38l2.316,5.608l-4.527,2.501
						L84.797,287.369z"/>
					<path style="fill:#FFD1AB;" d="M87.349,300.567c0.952,0.934,7.773,0.461,8.934,0.409c0.11-0.005,0.218,0.009,0.324,0.035
						c0.574,0.151,2.589,0.704,3.847,0.31c1.037-0.324,0.786-1.052,0.786-1.052c0.406-0.651-0.168-1.045-0.168-1.045
						c0.566-0.484-0.247-0.989-0.247-0.989c0.578-0.476-0.038-1.017-0.302-1.009c-0.676,0.02-2.227,0.63-2.227,0.63
						c0.144-0.198,0.833-1.348,0.819-1.893c-0.014-0.539-0.858-1.146-0.924-0.609c-0.185,1.539-1.053,1.604-1.442,2.888
						c-0.071,0.23-0.288,0.46-0.53,0.453c-1.219-0.044-4.557-0.465-6.568-1.62c-1.304-1.743-4.053-7.45-4.856-9.707l-4.084,2.698
						C81.706,292.27,85.866,299.111,87.349,300.567z"/>
					<path style="opacity:0.6;fill:#FA988B;" d="M100.04,281.506c0,0-1.976-3.679-3.214-4.575c0,0,3.351,2.473,3.777,4.275
						L100.04,281.506z"/>
					<path style="fill:#FFD0BD;" d="M95.625,263.869c0,0,0.673,1.376,1.095,1.828c0.421,0.452-1.313,1.02-1.313,1.02L95.625,263.869
						z"/>
					<g>
						<path style="fill:#78E2FF;" d="M235.743,368.345l-4.172-14.141c0,0,6.342-26.885-7.009-28.094
							c-12.681-1.148-9.281,23.068-8.882,25.657c-0.435-2.711-5.036-29.585-16.068-25.494c-12.347,4.579,7.485,29.489,7.485,29.489
							c-4.449-5.755-15.911-14.271-19.946-5.259c-1.759,3.929,2.012,7.587,6.824,10.463c-3.079-0.726-6.243-1.076-7.264,0.172
							c-2.843,3.477,2.973,7.528,14.154,7.75c4.052,0.081,6.103-0.757,7.08-1.856c0.136,0.043,0.221,0.069,0.221,0.069
							L235.743,368.345z"/>
						<path style="fill:#58BB84;" d="M235.743,368.345l-4.172-14.141c0,0,6.342-26.885-7.009-28.094
							c-12.681-1.148-9.281,23.068-8.882,25.657c-0.435-2.711-5.036-29.585-16.068-25.494c-12.347,4.579,7.485,29.489,7.485,29.489
							c-4.449-5.755-15.911-14.271-19.946-5.259c-1.759,3.929,2.012,7.587,6.824,10.463c-3.079-0.726-6.243-1.076-7.264,0.172
							c-2.843,3.477,2.973,7.528,14.154,7.75c4.052,0.081,6.103-0.757,7.08-1.856c0.136,0.043,0.221,0.069,0.221,0.069
							L235.743,368.345z"/>
						<path style="opacity:0.2;fill:#00A4D6;" d="M215.217,369.099c0,0-13.888-5.371-10.539-10.001
							c2.112-2.92,6.192,2.041,6.192,2.041s-5.368-7.025-0.724-9.166c4.822-2.223,7.408,5.874,7.408,5.874s-1.794-7.096,1.877-8.097
							c3.671-1.001,3.95,7.096,3.95,7.096s4.741-6.383,7.565-1.293c2.562,4.618-5.215,13.825-5.215,13.825"/>
						<path style="fill:#78E2FF;" d="M317.682,363.111c0.239-2.553-5.494-2.558-9.894-2.094c5.847-3.322,10.947-7.625,9.018-11.932
							c-4.035-9.012-17.166,0.922-21.614,6.678c0,0,19.833-24.91,7.485-29.489c-11.032-4.091-15.634,22.783-16.068,25.494
							c0.399-2.589,3.799-26.806-8.882-25.657c-13.35,1.209-11.181,42.235-11.181,42.235S316.848,372.028,317.682,363.111z"/>
						<path style="fill:#58BB84;" d="M317.682,363.111c0.239-2.553-5.494-2.558-9.894-2.094c5.847-3.322,10.947-7.625,9.018-11.932
							c-4.035-9.012-17.166,0.922-21.614,6.678c0,0,19.833-24.91,7.485-29.489c-11.032-4.091-15.634,22.783-16.068,25.494
							c0.399-2.589,3.799-26.806-8.882-25.657c-13.35,1.209-11.181,42.235-11.181,42.235S316.848,372.028,317.682,363.111z"/>
						<path style="opacity:0.2;fill:#00A4D6;" d="M286.863,370.038c0,0,13.888-5.371,10.539-10.001
							c-2.112-2.92-6.192,2.041-6.192,2.041s5.368-7.025,0.724-9.166c-4.822-2.223-7.408,5.874-7.408,5.874s1.794-7.096-1.877-8.097
							c-3.671-1.001-3.95,7.096-3.95,7.096s-4.741-6.383-7.565-1.293c-2.562,4.618,5.215,13.825,5.215,13.825"/>
					</g>
					<g>
						<g>
							<path style="fill:#614FB3;" d="M386.956,173.874v156.592c0,3.725-3.024,6.749-6.749,6.749H121.874
								c-3.735,0-6.749-3.024-6.749-6.749V173.874c0-3.725,3.014-6.749,6.749-6.749h258.333
								C383.932,167.125,386.956,170.149,386.956,173.874z"/>
							<polygon style="fill:#614FB3;" points="278.692,366.067 223.381,366.067 229.388,342.447 230.75,337.09 233.394,326.717 
								268.679,326.717 271.322,337.09 272.684,342.447 							"/>
							<polygon style="fill:#463AA0;" points="272.684,342.447 229.388,342.447 230.75,337.09 271.322,337.09 							"/>
							<path style="fill:#463AA0;" d="M299.917,372.593h-97.765c-2.346,0-4.248-1.902-4.248-4.248l0,0
								c0-2.346,1.902-4.248,4.248-4.248h97.765c2.346,0,4.248,1.902,4.248,4.248l0,0
								C304.164,370.691,302.263,372.593,299.917,372.593z"/>
							<rect x="115.126" y="186.626" style="fill:#8A82BD;" width="272.337" height="128.165"/>
							<path style="fill:#463AA0;" d="M251.022,329.495L251.022,329.495c-3.447,0-6.267-2.82-6.267-6.267l0,0
								c0-3.447,2.82-6.267,6.267-6.267l0,0c3.447,0,6.267,2.82,6.267,6.267l0,0C257.289,326.675,254.469,329.495,251.022,329.495z"
								/>
						</g>
						<g>
							<rect x="154.343" y="199.16" style="fill:#614FB3;" width="202.248" height="109.7"/>
							<rect x="157.465" y="201.964" style="fill:#FFFFFF;" width="196.004" height="104.092"/>
							<g style="opacity:0.6;">
								<g>
									<path style="fill:#E56533;" d="M311.887,270.675c0,7.016-2.83,13.331-7.402,17.903c-0.171,0.171-0.342,0.336-0.516,0.504
										c-0.101,0.095-0.206,0.193-0.311,0.285c-0.288,0.266-0.58,0.523-0.881,0.77c-0.089,0.076-0.177,0.149-0.266,0.222
										c-0.057,0.048-0.117,0.092-0.174,0.139c-0.092,0.073-0.187,0.146-0.279,0.219c-0.383,0.298-0.776,0.583-1.176,0.862
										c-0.105,0.07-0.206,0.139-0.311,0.206c-0.162,0.111-0.326,0.215-0.491,0.32c-0.13,0.082-0.257,0.162-0.387,0.241
										c-0.174,0.108-0.352,0.209-0.529,0.311c-0.177,0.105-0.355,0.203-0.535,0.301c-0.158,0.086-0.314,0.171-0.472,0.25
										c-0.022,0.013-0.044,0.025-0.07,0.035c-0.181,0.095-0.364,0.187-0.551,0.276c-0.184,0.089-0.371,0.174-0.558,0.26
										c-0.187,0.086-0.374,0.168-0.564,0.247c-0.168,0.073-0.339,0.143-0.51,0.209c-0.212,0.086-0.425,0.168-0.64,0.244
										c-0.181,0.067-0.361,0.13-0.545,0.193c-0.013,0.003-0.029,0.01-0.041,0.013c-0.196,0.067-0.393,0.133-0.593,0.193
										c-0.196,0.06-0.396,0.12-0.599,0.177c-0.364,0.105-0.732,0.2-1.106,0.288c-0.124,0.029-0.244,0.057-0.368,0.082
										c-0.022,0.006-0.048,0.01-0.07,0.013c-0.127,0.032-0.257,0.057-0.383,0.082c-0.016,0.003-0.032,0.006-0.048,0.01
										c-0.187,0.038-0.374,0.073-0.561,0.105c-0.444,0.076-0.887,0.143-1.337,0.196c-0.136,0.016-0.276,0.032-0.415,0.048
										c-0.054,0.006-0.111,0.01-0.165,0.016c-0.143,0.013-0.282,0.025-0.425,0.038c-0.171,0.013-0.339,0.025-0.51,0.035
										c-0.143,0.01-0.285,0.016-0.431,0.022c-0.155,0.006-0.314,0.013-0.469,0.016c-0.219,0.006-0.437,0.01-0.656,0.01
										c-0.368-0.016-0.738-0.035-1.109-0.051c-0.089-0.003-0.174-0.01-0.26-0.013c-0.196-0.006-0.396-0.016-0.593-0.022
										c-0.83-0.032-1.667-0.063-2.506-0.092c-0.003,0-0.003,0-0.006,0c-0.215-0.006-0.428-0.013-0.643-0.019
										c-0.193-0.009-0.39-0.013-0.583-0.019c-1.92-0.057-3.863-0.098-5.821-0.127c-0.193-0.003-0.387-0.006-0.583-0.01
										c-4.728-0.06-9.544-0.051-14.383-0.003l0.013-6.901c0.019-2.205,0.643-3.001,1.695-2.747
										c1.524,0.364,2.399,2.871,6.616,2.858c3.311-0.006,7.183-3.409,7.215-7.589c0.032-4.183-3.787-7.564-7.101-7.554
										c-4.218,0.013-5.133,2.525-6.664,2.896c-1.052,0.26-1.664-0.536-1.648-2.735l0.108-9.072
										c4.759-0.013,9.522-0.025,14.281-0.038c2.199-0.003,2.998-0.634,2.754-1.679c-0.355-1.53-2.861-2.415-2.833-6.632
										c0.006-0.672,0.152-1.366,0.415-2.044c0.082-0.212,0.174-0.421,0.279-0.627c1.02-2.053,3.089-3.866,5.571-4.366
										c0.177-0.038,0.355-0.067,0.536-0.086c0.079-0.016,0.158-0.022,0.241-0.029c0.035-0.006,0.07-0.01,0.105-0.006l0.003-0.003
										c0.067-0.006,0.13-0.009,0.196-0.013c0.095-0.003,0.187-0.006,0.282-0.006c0.757-0.003,1.489,0.12,2.18,0.349
										c3.112,1.011,5.365,4.075,5.342,6.794c-0.035,4.211-2.551,5.114-2.931,6.642c-0.26,1.052,0.526,1.673,2.728,1.66
										c2.621-0.003,8.628-0.013,14.297-0.019c1.043,0,2.072-0.003,3.064-0.003c0.83-0.003,1.632-0.003,2.399-0.003
										c0.694,0,1.356,0,1.977-0.003h0.003c0.057,0.238,0.111,0.478,0.162,0.722c0.051,0.244,0.098,0.485,0.143,0.732
										c0.089,0.488,0.165,0.982,0.222,1.48C311.827,268.635,311.887,269.649,311.887,270.675z"/>
									<g style="opacity:0.2;">
										<path style="fill:#419DB1;" d="M311.179,264.703c-2.135,0.002-4.749,0.006-7.44,0.009
											c0.464,1.914,0.705,3.909,0.705,5.963c0,7.014-2.828,13.329-7.401,17.902c-3.95,3.95-9.155,6.585-14.974,7.261
											c1.505,0.05,3.001,0.106,4.476,0.178c7.01,0,13.329-2.828,17.939-7.438c4.573-4.573,7.401-10.888,7.401-17.902
											C311.886,268.618,311.644,266.62,311.179,264.703z"/>
									</g>
								</g>
								<g>
									<path style="fill:#FFC25B;" d="M310.953,251.165l-21.742,0.026c-2.203,0.007-2.988-0.61-2.728-1.663
										c0.38-1.526,2.895-2.43,2.928-6.642c0.026-3.319-3.338-7.152-7.52-7.141c-4.179,0.011-7.598,3.862-7.624,7.182
										c-0.03,4.216,2.474,5.102,2.828,6.631c0.246,1.046-0.551,1.674-2.754,1.678l-14.278,0.037
										c0.033-4.759,0.071-5.797,0.104-10.557c0.019-2.203-0.599-2.992-1.648-2.739c-1.533,0.372-2.448,2.888-6.661,2.899
										c-3.319,0.011-7.133-3.371-7.104-7.55c0.03-4.182,3.9-7.584,7.219-7.595c4.212-0.011,5.09,2.501,6.616,2.862
										c1.046,0.253,1.674-0.543,1.693-2.746c0.026-3.639,0.052-10.996,0.078-14.635c6.274,0.301,12.075,2.448,16.845,5.931
										c5.001,3.643,8.912,8.797,11.044,14.724c6.396,0.502,12.131,3.371,16.317,7.71
										C307.653,242.748,309.889,246.726,310.953,251.165z"/>
									<g style="opacity:0.3;">
										<path style="fill:#80D4DD;" d="M304.568,239.577c-4.186-4.339-9.92-7.208-16.317-7.71
											c-2.132-5.928-6.043-11.081-11.044-14.724c-4.77-3.483-10.572-5.63-16.845-5.931c-0.003,0.384-0.005,0.812-0.008,1.27
											c3.419,1.02,6.596,2.606,9.411,4.661c5.001,3.643,8.912,8.797,11.044,14.724c6.397,0.502,12.131,3.371,16.317,7.71
											c3.085,3.17,5.321,7.148,6.385,11.587l-14.742,0.018c0.141,0.006,0.287,0.009,0.442,0.008l21.742-0.026
											C309.889,246.726,307.653,242.748,304.568,239.577z"/>
									</g>
								</g>
								<g>
									<path style="fill:#FE9987;" d="M239.919,243.621c-0.029,4.18,3.783,7.561,7.104,7.551c4.211-0.013,5.127-2.525,6.661-2.899
										c1.049-0.253,1.667,0.536,1.648,2.738l-0.105,10.558c-4.763,0.016-9.522,0.029-14.284,0.041
										c-2.199,0.006-2.994,0.634-2.754,1.683c0.358,1.524,2.861,2.415,2.833,6.626c-0.029,3.321-3.448,7.171-7.63,7.187
										c-4.183,0.006-7.542-3.821-7.516-7.142c0.035-4.214,2.551-5.121,2.928-6.645c0.263-1.052-0.523-1.67-2.725-1.664
										c-2.96,0.006-11.661,0.016-18.968,0.025c0.7-1.023,1.496-1.98,2.37-2.855c3.41-3.41,8.061-5.58,13.251-5.811l-0.038-0.273
										c0-8.638,3.527-16.468,9.183-22.124c3.435-3.435,7.668-6.071,12.399-7.608c0.013-0.006,0.025-0.013,0.038-0.013
										c0.333-0.111,0.669-0.215,1.008-0.311c0.054-0.016,0.105-0.032,0.158-0.048c2.709-0.76,5.567-1.169,8.524-1.169
										c0.51,0,1.02,0.013,1.521,0.038l-0.076,14.636c-0.019,2.202-0.65,2.998-1.695,2.744c-1.524-0.358-2.402-2.871-6.616-2.861
										C243.82,236.038,239.948,239.438,239.919,243.621z"/>
									<path style="opacity:0.2;fill:#FFFFFF;" d="M236.864,231.738c0.515-0.387,1.257-0.29,1.644,0.225
										c0.42,0.516,0.323,1.257-0.193,1.676c-2.031,1.547-3.706,3.513-4.899,5.738c-1.16,2.192-1.902,4.641-2.063,7.252
										c-0.032,0.677-0.612,1.16-1.257,1.128c-0.644-0.065-1.161-0.613-1.128-1.258c0.194-2.965,1.032-5.737,2.353-8.219
										C232.674,235.735,234.576,233.479,236.864,231.738L236.864,231.738z M244.277,228.16c0.613-0.161,1.257,0.226,1.418,0.871
										c0.161,0.645-0.225,1.289-0.871,1.45c-0.612,0.129-1.225,0.322-1.805,0.548c-0.612,0.225-1.225,0.484-1.773,0.773
										c-0.58,0.29-1.289,0.032-1.579-0.548c-0.29-0.58-0.064-1.289,0.516-1.579c0.676-0.323,1.322-0.612,1.998-0.871
										C242.86,228.547,243.536,228.353,244.277,228.16L244.277,228.16z"/>
								</g>
								<path style="fill:#D18654;" d="M264.656,280.924c-0.029,4.179-3.899,7.583-7.215,7.59c-4.216,0.011-5.09-2.496-6.617-2.86
									c-1.049-0.251-1.676,0.543-1.694,2.744c-0.004,0.568-0.007,6.34-0.015,6.905c-5.684,0.051-11.394,0.149-17.012,0.23
									c-0.496,0.007-0.987,0.015-1.476,0.022c-0.35,0.004-0.7,0.007-1.046,0.015c-0.452,0.004-0.904,0.011-1.355,0.018
									c-3.585,0.044-7.127,0.073-10.589,0.073c-3.385,0-6.588-0.845-9.383-2.347c-0.036-0.018-0.069-0.036-0.106-0.055
									c-0.474-0.259-0.936-0.536-1.388-0.831c-0.004-0.004-0.011-0.007-0.015-0.007c-0.302-0.204-0.601-0.408-0.889-0.627
									c-0.036-0.026-0.077-0.051-0.113-0.08c-0.477-0.357-0.933-0.736-1.374-1.133c-0.138-0.124-0.273-0.251-0.408-0.383
									c-0.12-0.113-0.24-0.23-0.357-0.35c-2.536-2.536-4.402-5.75-5.283-9.346c-0.113-0.452-0.208-0.915-0.288-1.377
									c-0.04-0.23-0.073-0.459-0.106-0.689c-0.015-0.113-0.029-0.23-0.044-0.343c-0.011-0.124-0.025-0.251-0.036-0.375
									c-0.033-0.342-0.058-0.689-0.069-1.038c-0.011-0.142-0.015-0.284-0.018-0.43c-0.004-0.157-0.007-0.313-0.007-0.47
									c0-0.383,0.011-0.762,0.036-1.137c0.025-0.488,0.069-0.973,0.135-1.454c0.415-3.155,1.585-6.096,3.312-8.621l18.965-0.026
									c2.204-0.007,2.988,0.612,2.729,1.665c-0.379,1.527-2.897,2.43-2.93,6.646c-0.026,3.155,3.01,6.774,6.905,7.109
									c0.2,0.022,0.404,0.029,0.612,0.029c1.425-0.004,2.758-0.452,3.899-1.177c0.342-0.215,0.67-0.455,0.977-0.721
									c1.669-1.421,2.736-3.436,2.751-5.287c0.004-0.324-0.011-0.63-0.04-0.918c-0.302-3.436-2.463-4.303-2.791-5.706
									c-0.24-1.049,0.554-1.676,2.755-1.683l14.287-0.04c-0.044,4.762-0.077,4.311-0.113,9.073
									c-0.015,2.201,0.598,2.995,1.651,2.736c1.53-0.372,2.445-2.886,6.661-2.897C260.871,273.36,264.689,276.741,264.656,280.924
									z"/>
							</g>
							<rect x="119.57" y="199.052" style="fill:#AAA7D1;" width="31.514" height="74.239"/>
							<g>
								<rect x="121.196" y="200.517" style="fill:#FFFFFF;" width="13.601" height="9.551"/>
								<rect x="135.857" y="200.517" style="opacity:0.75;fill:#BDD2E5;" width="13.6" height="9.551"/>
								<rect x="121.196" y="211.153" style="opacity:0.7;fill:#ABDDF4;" width="13.601" height="9.551"/>
								<rect x="135.857" y="211.153" style="opacity:0.75;fill:#6BB2D1;" width="13.6" height="9.551"/>
								<rect x="121.196" y="221.79" style="opacity:0.75;fill:#87B2CC;" width="13.601" height="9.551"/>
								<rect x="135.857" y="221.79" style="opacity:0.75;fill:#569EBA;" width="13.6" height="9.551"/>
								<rect x="121.196" y="232.426" style="fill:#FE9987;" width="13.601" height="9.551"/>
								<rect x="135.857" y="232.426" style="fill:#F1C8A8;" width="13.6" height="9.551"/>
								<rect x="121.196" y="243.063" style="fill:#FCC358;" width="13.601" height="9.551"/>
								<rect x="135.857" y="243.063" style="fill:#FFC25B;" width="13.6" height="9.551"/>
								<rect x="121.196" y="253.699" style="fill:#D18654;" width="13.601" height="9.551"/>
								<rect x="135.857" y="253.699" style="fill:#E56533;" width="13.6" height="9.551"/>
							</g>
							<rect x="119.57" y="192.234" style="fill:#AAA7D1;" width="260.199" height="4.553"/>
							<g>
								<rect x="359.696" y="199.16" style="fill:#AAA7D1;" width="20.073" height="109.7"/>
								<g>
									<rect x="361.488" y="200.575" style="fill:#C2C1DB;" width="16.49" height="1.979"/>
									<rect x="361.488" y="204.157" style="fill:#C2C1DB;" width="16.49" height="1.979"/>
									<rect x="361.488" y="228.144" style="fill:#C2C1DB;" width="16.49" height="1.979"/>
									<rect x="361.488" y="304.988" style="fill:#C2C1DB;" width="16.49" height="1.979"/>
									<rect x="361.488" y="208.064" style="fill:#C2C1DB;" width="16.49" height="18.368"/>
								</g>
							</g>
							<g>
								<g>
									<polygon style="fill:#BABFD6;" points="311.879,297.676 332.802,297.676 332.802,254.169 331.648,253.18 311.553,254.169 
										310.724,296.687 									"/>
									<rect x="310.724" y="253.18" style="fill:#DFE1ED;" width="21.25" height="43.507"/>
									<g>
										<rect x="311.887" y="254.434" style="fill:#EFF0F4;" width="18.782" height="1.447"/>
										<rect x="311.887" y="258.776" style="fill:#EFF0F4;" width="18.782" height="1.447"/>
										<rect x="311.887" y="263.118" style="fill:#EFF0F4;" width="18.782" height="1.447"/>
										<rect x="311.887" y="267.461" style="fill:#EFF0F4;" width="18.782" height="1.447"/>
										<rect x="311.887" y="270.355" style="fill:#EFF0F4;" width="18.782" height="1.447"/>
										<rect x="311.887" y="273.25" style="fill:#EFF0F4;" width="18.782" height="1.447"/>
										<rect x="311.887" y="277.593" style="fill:#EFF0F4;" width="18.782" height="1.447"/>
										<rect x="311.887" y="282.094" style="fill:#EFF0F4;" width="18.782" height="3.859"/>
										<rect x="311.887" y="290.619" style="fill:#EFF0F4;" width="18.782" height="1.447"/>
										<rect x="311.887" y="292.067" style="fill:#EFF0F4;" width="18.782" height="1.447"/>
									</g>
								</g>
							</g>
							<g>
								<g>
									<polygon style="fill:#BABFD6;" points="328.287,235.354 352.259,235.354 352.259,203.309 350.936,202.581 327.914,203.309 
										326.964,234.625 									"/>
									<rect x="326.964" y="202.581" style="fill:#D0D1D8;" width="24.345" height="32.044"/>
									<g>
										<rect x="328.297" y="203.504" style="fill:#ADAEB2;" width="21.519" height="1.066"/>
										<rect x="332.168" y="206.702" style="fill:#ADAEB2;" width="17.648" height="1.066"/>
										<rect x="332.633" y="209.901" style="fill:#ADAEB2;" width="17.182" height="1.066"/>
										<rect x="332.802" y="213.099" style="fill:#ADAEB2;" width="17.013" height="1.066"/>
										<rect x="336.018" y="215.231" style="fill:#ADAEB2;" width="13.798" height="1.066"/>
										<rect x="336.018" y="217.363" style="fill:#ADAEB2;" width="13.798" height="1.066"/>
										<rect x="336.018" y="220.561" style="fill:#ADAEB2;" width="13.798" height="1.066"/>
										<rect x="328.297" y="223.876" style="fill:#ADAEB2;" width="21.519" height="2.842"/>
										<rect x="328.297" y="230.156" style="fill:#ADAEB2;" width="21.519" height="1.066"/>
										<rect x="328.297" y="231.222" style="fill:#ADAEB2;" width="21.519" height="1.066"/>
									</g>
								</g>
							</g>
						</g>
					</g>
					<path style="opacity:0.55;fill:#E192F4;" d="M373.539,337.214l1.97-8.176h4.887c-0.058,2.793-0.105,5.537-0.142,8.173
						c3.703-0.026,6.702-3.037,6.702-6.746v-77.64c-3.329,0.553-6.535,0.924-9.656,0.427c-0.634-0.101-1.237,0.314-1.401,0.935
						c-0.012,0.044-0.026,0.1-0.038,0.146c-1.443-0.574-2.904-1.225-3.697-1.779c-1.924-1.343-10.509-9.265-10.509-9.265
						s0.551-2.49,0.226-3.221c-0.143-0.309-0.362-0.935-0.867-1.357c0,0-1.611-1.181-2.041-1.235
						c-0.429-0.054-0.268,0.778-0.107,1.101c0.162,0.322,1.485,1.574,1.485,1.574c0.068,0.128,0.106,0.249,0.083,0.325
						c-0.015,0.075-0.106,0.045-0.242-0.061c-0.513-0.378-1.712-1.751-2.527-2.535c-1.034-0.989-2.034-1.667-2.29-1.68
						c-0.46-0.023-0.452,0.401-0.384,0.507c-0.098,0-1.162,0.015-1.019,0.634c0,0-0.078,0.018,0.202,0.524
						c0,0-0.573,0.649-0.061,1.365c0,0.008,1.386,2.838,1.386,2.845c0.528,0.732,1.607,2.528,3.825,2.875
						c0,0,7.643,11.248,9.748,12.147c1.021,0.436,3.44,1.553,5.662,2.588c-0.061,0.398-0.117,0.797-0.163,1.193
						c-0.079,0.685,0.392,1.309,1.074,1.414c1.318,0.203,3.582,0.465,6.01,0.349c0.739-0.035,1.358,0.56,1.343,1.299
						c-0.246,12.357-1.344,23.379-1.802,27.897c-0.065,0.639,0.355,1.221,0.981,1.367c0.045,0.01,0.108,0.025,0.156,0.036
						c-0.331,2.307-0.612,5.255-0.852,8.618h-6.065c-1.59,0-2.878,1.288-2.878,2.878c0,1.589,1.288,2.878,2.878,2.878h1.421
						l-7.133,29.602H373.539z M380.672,307.612h0.454c-0.277,5.267-0.479,11.121-0.627,16.949h-3.911L380.672,307.612z"/>
					<g>
						<g>
							<polygon style="fill:#7A74B7;" points="427.018,382.36 430.855,382.36 411.668,302.732 407.83,302.732 							"/>
							<path style="fill:#7A74B7;" d="M374.412,305.61h41.253c1.59,0,2.878-1.289,2.878-2.878l0,0c0-1.59-1.288-2.878-2.878-2.878
								h-41.253c-1.59,0-2.878,1.288-2.878,2.878l0,0C371.534,304.321,372.822,305.61,374.412,305.61z"/>
							<rect x="373.453" y="322.559" style="fill:#7A74B7;" width="41.739" height="4.477"/>
							<rect x="368.851" y="343.985" style="fill:#7A74B7;" width="52.375" height="4.477"/>
							<rect x="364.368" y="362.373" style="fill:#7A74B7;" width="60.296" height="4.478"/>
							<polygon style="fill:#7A74B7;" points="361.176,382.36 357.339,382.36 376.526,302.732 380.364,302.732 							"/>
						</g>
					</g>
					<path style="fill:#F2B044;" d="M92.364,252.94c0,0,3.655-0.316,4.62,2.164s-0.262,4.843-0.262,4.843"/>
					<path style="fill:#FFD1AB;" d="M83.862,262.644c0.413,4.445,3.674,6.985,3.674,6.985l0.965,3.66l2.511,1.696l1.503,1.446
						l0.698-2.332v-2.792c-0.006-0.61,0.89-1.259,1.481-1.428c0.654-0.187,1.549-0.636,2.423-1.698
						c0.052-0.065,0.104-0.134,0.148-0.211c0.006-0.004,0.006-0.004,0.006-0.004c1.529-2.408,1.573-11.237-4.36-13.342
						C86.784,252.444,83.445,258.193,83.862,262.644z"/>
					<path style="fill:#F2B044;" d="M83.115,259.73c0,0-4.603,0.061-5.704-2.616c-1.1-2.677,1.056-5.668,3.614-5.37
						c2.27,0.264,3.46,1.339,4.532,3.913"/>
					<path style="fill:#FDC358;" d="M95.512,256.596c-0.389,0.719-1.338,0.975-2.376,1.008c-2.429,0.091-4.293,2.187-3.912,4.586
						c0.016,0.099,0.032,0.199,0.057,0.297c0.086,0.468,0.205,1.016,0.326,1.592c0,0,0.002,0.036,0.016,0.099
						c0.043,0.371,0.155,1.622-0.705,0.896c-1.005-0.844-1.035-4.092-2.397-2.881c-1.727,1.536,1.015,7.435,1.015,7.435
						c-3.838-0.124-5.388-3.797-5.666-7.909c-0.278-4.112,4.453-12.583,12.146-8.37C94.016,253.35,96.551,254.693,95.512,256.596z"
						/>
					<path style="opacity:0.55;fill:#E192F4;" d="M177.091,319.563c0.095-0.705,0.223-1.651,0.373-2.755
						c0.106,0.006,0.208,0.031,0.316,0.031l13.955-0.035c2.816-0.007,5.094-2.296,5.086-5.112l-0.019-7.352
						c0.366-0.021,0.743-0.083,1.117-0.22c1.296-0.472,0.841-1.47,0.841-1.47s0.619-0.698,0.109-1.143c0,0,0.401-0.782-0.12-1.207
						c0,0,0.417-1.036-0.534-1.093c0,0-0.659,0.038-1.426,0.055l-0.004-1.526c-0.007-2.816-2.296-5.094-5.112-5.086l-7.423,0.019
						c-1.297-2.667-2.85-5.865-4.012-8.011c-0.532-2.606-1.443-5.022-2.898-6.588c0.054-0.219,0.126-0.459,0.216-0.718
						c1.678,0.657,3.302,1.002,4.279,0.571c0.769-0.811,1.395-1.82,1.912-2.938c0.452,0.065,1.106,0.088,1.245-0.295
						c0.15-0.414-0.072-1.728-0.222-2.494c-0.025-0.449-0.155-1.003-0.015-1.541c0.038-0.147,0.359-0.316,0.436-0.436
						c0.61-0.95,0.566-1.599,0.502-1.876c2.399,0.088,4.738-1.167,5.106-5.975c-0.95,0.301-3.357-0.188-5.611-1.27
						c-1.171-0.563-6.227-5.03-9.572-0.946c-1.644-0.291-3.921,1.179-4.533,4.904c-0.612,3.725,0.742,8.89,2.067,9.446
						c0,0,0.084,0.975-0.066,1.933c-2.331-0.018-5.896,0.595-8.242,4.034c-0.478,0.7-1.043,1.703-1.663,2.917
						c-0.085,0.107-0.175,0.208-0.255,0.323c-1.866,2.692-3.461,6.479-4.388,10.11c-2.975,7.332-5.886,15.547-6.908,19.742
						c-0.207,0.851,0.197,1.721,0.97,2.112c-1.189,6.673-0.7,13.453-0.015,21.543h12.626c0.057-0.491,0.117-0.965,0.184-1.398
						c0.042,0.424,0.091,0.899,0.143,1.398h11.34c-0.021-6.36-0.233-12.175-0.449-16.478
						C176.777,320.444,177.027,320.038,177.091,319.563z"/>
					<g>
						<g>
							<polyline style="fill:#FBD4AD;" points="166.422,371.612 165.525,377.466 168.545,377.865 169.487,371.888 							"/>
							<path style="fill:#3E327A;" d="M176.692,381.364c-2.169,0.686-4.705,0.273-5.993,0.075c-1.278-0.197-2.526-0.226-4.041-0.235
								c-1.991-0.009-2.011-0.122-1.743-2.266c0.089-0.734,0.245-1.32,0.642-1.762c0.911,0.498,2.231,0.238,2.419-0.373
								c0.188-0.611,0.604-0.872,0.797-0.819c0.335,0.092,0.639,0.621,0.877,1.054c0.277,0.508,1.615,1.702,3.457,2.483
								C174.959,380.302,178.871,380.678,176.692,381.364z"/>
						</g>
						<g>
							<polyline style="fill:#FBD4AD;" points="152.404,371.612 151.507,377.466 154.527,377.865 155.469,371.888 							"/>
							<path style="fill:#3E327A;" d="M162.674,381.364c-2.169,0.686-4.705,0.273-5.993,0.075c-1.278-0.197-2.526-0.226-4.041-0.235
								c-1.991-0.009-2.011-0.122-1.743-2.266c0.089-0.734,0.245-1.32,0.642-1.762c0.911,0.498,2.231,0.238,2.419-0.373
								c0.188-0.611,0.604-0.872,0.797-0.819c0.335,0.092,0.639,0.621,0.877,1.054c0.277,0.508,1.615,1.702,3.457,2.483
								C160.941,380.302,164.853,380.678,162.674,381.364z"/>
						</g>
						<path style="fill:#F2B044;" d="M172.423,282.73l1.868,10.357c0,0,6.143,9.985,8.784,10.19
							c0.606,0.044,4.655,0.292,7.046,0.095c0.941-0.08,1.616-0.224,1.732-0.482c0.871-1.898,0.73-4.104,0.545-5.347
							c-0.084-0.563-0.583-0.964-1.151-0.933l-0.76,0.041l-3.916,0.206c-1.029,0.05-1.987-0.499-2.459-1.412
							c-1.645-3.192-6.11-12.857-7.292-14.069C175.295,279.807,172.423,282.73,172.423,282.73z"/>
						<path style="fill:#3E327A;" d="M150.974,312.772c0.745-3.264,14.807-2.126,14.807-2.126s-0.03,0.684-0.083,1.818
							c2-0.803,4.679-0.983,8.268-0.192c0,0,0.914,11.356,0.914,24.958c0,4.274-0.168,11.011-0.688,16.784
							c-0.954,10.602-3.474,20.358-3.474,20.358l-6.159-0.04c0,0,1.105-9.659,0.64-20.382c-0.246-5.662-1.368-14.67-1.806-19.136
							c-0.748,4.829-0.82,13.612-1.877,19.474c-1.887,10.471-4.743,20.103-4.743,20.103l-5.911-0.034
							c0.668-6.992,1.087-14.164,0.906-20.2C151.224,336.049,148.312,324.439,150.974,312.772z"/>
						<path style="fill:#FDC358;" d="M173.621,275.766c-0.147-0.071-0.301-0.117-0.461-0.147c-1.267-0.238-7.013-1.003-10.321,3.847
							c-3.459,5.072-11.379,25.561-13.213,33.091c-0.215,0.884,0.224,1.792,1.056,2.16c3.841,1.696,14.928,6.2,22.773,5.448
							c0.85-0.081,1.519-0.757,1.634-1.603c0.637-4.719,2.716-20.012,3.434-23.96C179.364,289.974,178.964,278.342,173.621,275.766z
							"/>
						<path style="opacity:0.6;fill:#3E327A;" d="M163.392,334.814c0,0,1.049-5.297,1.457-9.167c0,0,0.658,9.191-0.98,13.645
							L163.392,334.814z"/>
						<g>
							<path style="fill:#FE9987;" d="M194.819,310.69c0.007,2.816-2.27,5.105-5.086,5.112l-13.955,0.035
								c-2.816,0.007-5.105-2.27-5.112-5.086l-0.035-13.955c-0.007-2.816,2.27-5.105,5.086-5.112l13.955-0.035
								c2.816-0.007,5.105,2.27,5.112,5.086L194.819,310.69z"/>
							<g>
								<path style="fill:#FFFFFF;" d="M180.517,297.368c0.539-0.001,1.079,0.008,1.617-0.009c0.252-0.008,0.415,0.085,0.486,0.318
									c0.226,0.735,0.437,1.475,0.666,2.209c0.232,0.745,0.482,1.484,0.717,2.229c0.168,0.533,0.32,1.07,0.485,1.604
									c0.161,0.521,0.33,1.04,0.493,1.56c0.17,0.545,0.337,1.091,0.506,1.636c0.154,0.498,0.304,0.997,0.463,1.493
									c0.219,0.683,0.452,1.363,0.657,2.05c0.014,0.048-0.145,0.211-0.229,0.215c-0.463,0.023-0.927,0.013-1.391,0.014
									c-0.439,0.001-0.878,0.002-1.317,0.006c-0.199,0.002-0.301-0.067-0.364-0.285c-0.233-0.81-0.5-1.61-0.752-2.415
									c-0.026-0.083-0.037-0.171-0.048-0.257c-0.039-0.292-0.184-0.442-0.498-0.439c-1.053,0.012-2.106,0.014-3.16,0.011
									c-0.21-0.001-0.291,0.065-0.348,0.284c-0.217,0.828-0.454,1.652-0.715,2.467c-0.21,0.655-0.229,0.648-0.93,0.648
									c-0.665,0.001-1.329-0.004-1.994,0.009c-0.276,0.005-0.372-0.096-0.291-0.36c0.165-0.534,0.333-1.066,0.494-1.601
									c0.168-0.558,0.329-1.118,0.495-1.677c0.153-0.512,0.31-1.022,0.465-1.533c0.238-0.783,0.476-1.567,0.715-2.35
									c0.228-0.748,0.459-1.496,0.685-2.245c0.234-0.772,0.464-1.546,0.695-2.319c0.085-0.285,0.164-0.573,0.254-0.856
									c0.092-0.29,0.259-0.437,0.602-0.413c0.512,0.035,1.028,0.007,1.542,0.006L180.517,297.368z M180.428,299.767
									c-0.057,0.044-0.102,0.06-0.109,0.087c-0.14,0.528-0.275,1.058-0.411,1.588c-0.176,0.686-0.356,1.37-0.529,2.057
									c-0.097,0.386-0.183,0.775-0.276,1.162c-0.052,0.217,0.039,0.302,0.252,0.301c0.765-0.004,1.53-0.002,2.295-0.005
									c0.199-0.001,0.268-0.077,0.188-0.285c-0.12-0.312-0.226-0.631-0.314-0.953c-0.292-1.067-0.571-2.138-0.86-3.205
									C180.598,300.268,180.512,300.028,180.428,299.767z"/>
								<path style="fill:#FFFFFF;" d="M190.844,305.867c0.004,1.466,0.001,2.932,0.017,4.398c0.003,0.303-0.076,0.422-0.399,0.414
									c-0.751-0.019-1.504-0.01-2.255,0.005c-0.31,0.007-0.409-0.106-0.409-0.418c0.001-2.92-0.012-5.839-0.018-8.759
									c-0.001-0.54,0.012-0.548,0.541-0.549c0.689-0.002,1.379,0.014,2.067-0.011c0.348-0.013,0.457,0.1,0.455,0.446
									c-0.011,1.491,0.001,2.982,0.005,4.473C190.846,305.867,190.845,305.867,190.844,305.867z"/>
								<path style="fill:#FFFFFF;" d="M189.297,296.772c0.888-0.061,1.649,0.66,1.613,1.541c-0.038,0.934-0.557,1.466-1.612,1.494
									c-1.052,0.028-1.625-0.719-1.616-1.537C187.691,297.473,188.299,296.749,189.297,296.772z"/>
							</g>
						</g>
						<path style="fill:#FBD4AD;" d="M196.214,298.206c0,0-2.765,0.159-3.573-0.03c-0.809-0.188-0.827,0.866-0.481,1.08
							c0,0-0.463,0.038-0.669,0.364c-0.151,0.24,0.014,1.183,0.545,1.063c0,0-1.028,0.58,0.314,1.375c0,0-0.393,0.698,0.262,0.937
							c0.655,0.24,2.009,0.594,3.306,0.122c1.296-0.472,0.841-1.47,0.841-1.47s0.619-0.698,0.108-1.143c0,0,0.401-0.782-0.12-1.206
							C196.748,299.299,197.165,298.263,196.214,298.206z"/>
						<path style="fill:#FBD4AD;" d="M177.681,310.174c-0.39-0.614-3.48-2.115-2.96-1.875c0.52,0.239,2.288,0.698,2.333,0.521
							c0.044-0.177-0.377-0.647-1.25-1.205c-0.874-0.559-2.997-1.42-2.926-1.506c0.07-0.086,1.098,0.19,1.385,0.362
							c0.287,0.171,1.74,0.525,1.553,0.123c-0.187-0.401-1.722-1.396-2.595-2.036c-0.836-0.612-2.644-0.464-3.795-0.365
							c-0.599,0.051-1.178-0.073-1.689-0.362c-0.771-0.435-2.002-1.142-2.873-1.7c-1.358-0.868-2.776,3.822-2.776,3.822
							s2.432,0.821,3.98,1.259c0.668,0.189,1.255,0.598,1.69,1.179c1.299,1.738,1.994,1.768,2.927,2.112
							c1.162,0.429,4.663,1.199,4.571,0.881c-0.052-0.179-0.977-0.66-1.655-0.984c1.088,0.402,2.97,0.923,2.885,0.564
							c-0.071-0.302-1.488-1.131-2.18-1.51C175.329,309.899,178.031,310.723,177.681,310.174z"/>
						<path style="fill:#F2B044;" d="M155.923,301.182c0.527,2.156,4.114,4.435,6.388,5.689c0.227,0.123,0.44,0.237,0.635,0.34
							c0.656,0.344,1.464,0.023,1.713-0.674l1.558-4.364c0.213-0.595-0.065-1.249-0.637-1.518c-0.006-0.003-0.012-0.006-0.018-0.009
							c-1.297-0.617-3.276-1.82-2.661-3.186c0.688-1.539,4.195-6.654,6.224-9.58c0.546-0.795,1.756-3.76,0.81-5.807
							c-1.366-2.974-6.608-2.839-9.014,0.633C157.416,287.765,154.84,296.698,155.923,301.182z"/>
						<g>
							<path style="fill:#FFD1AB;" d="M183.642,267.188c0,0,0.373,0.74-0.453,2.027c-0.077,0.121-0.398,0.29-0.436,0.436
								c-0.14,0.538-0.009,1.093,0.015,1.541c-0.634,2.22-1.563,4.282-2.935,5.728c-1.409,0.622-4.158-0.355-6.482-1.581
								c-0.496-0.044-3.24-1.393-2.844-5.291c0.397-3.898,3.444-7.478,3.651-7.559c0.207-0.082,6.228,1.025,6.47,1.077
								C180.87,263.62,183.642,267.188,183.642,267.188z"/>
							<path style="fill:#614FB5;" d="M174.977,268.673c0,0,1.593-0.352,1.66-2.424c0.067-2.072,0.335-2.141,1.603-0.983
								c1.268,1.158,9.822,5.677,10.557-3.901c-0.95,0.301-3.357-0.188-5.611-1.27c-1.171-0.563-6.227-5.03-9.572-0.946
								c-1.644-0.291-3.921,1.179-4.533,4.904c-0.612,3.725,0.742,8.89,2.067,9.446c0.852,0.358,1.257-0.512,1.574-2.277
								c0.135-0.919-2.264-2.7,0.255-5.003C174.017,265.495,176.205,266.788,174.977,268.673z"/>
							<path style="fill:#FBD4AD;" d="M171.147,273.499c0,0,0.235,2.682-0.758,3.522c1.529,1.847,4.968,2.123,4.968,2.123
								s-0.783-1.259,0.975-4.529C178.089,271.345,171.147,273.499,171.147,273.499z"/>
							<path style="fill:#FFD1AB;" d="M182.65,270.624c0,0,0.557,2.468,0.341,3.064c-0.216,0.596-1.686,0.211-1.686,0.211
								L182.65,270.624z"/>
						</g>
					</g>
					<g style="opacity:0.55;">
						<path style="opacity:0.55;fill:#E192F4;" d="M233.29,356.96h-7.593l-1.816,7.138h-21.73c-2.346,0-4.248,1.902-4.248,4.248
							c0,2.346,1.902,4.248,4.248,4.248h34.194v-12.578C236.346,358.331,234.975,356.96,233.29,356.96z"/>
						<path style="opacity:0.55;fill:#E192F4;" d="M198.852,337.214l0.292-9.57c0.001-0.029-0.006-0.057-0.006-0.086
							c0.038-0.421-0.092-0.854-0.404-1.186l-4.629-4.92c-0.581-0.617-1.55-0.647-2.166-0.066c-0.617,0.58-0.646,1.55-0.066,2.167
							l4.194,4.457l-0.281,9.205H198.852z"/>
						<path style="opacity:0.55;fill:#E192F4;" d="M228.159,353.161v-5.88l-2.397,9.423
							C227.163,356.127,228.159,354.767,228.159,353.161z"/>
					</g>
					<g>
						<g>
							<g>
								<g>
									<path style="fill:#F1C8A8;" d="M210.27,354.485c-1.835,0-3.327-1.492-3.327-3.327v-12.028c0-1.835,1.492-3.327,3.327-3.327
										h12.028c1.835,0,3.327,1.493,3.327,3.327v12.028c0,1.835-1.492,3.327-3.327,3.327H210.27z"/>
									<path style="fill:#F1C8A8;" d="M222.297,336.336c1.543,0,2.795,1.251,2.795,2.795v12.028c0,1.543-1.251,2.795-2.795,2.795
										H210.27c-1.543,0-2.795-1.251-2.795-2.795V339.13c0-1.543,1.251-2.795,2.795-2.795H222.297 M222.297,335.271H210.27
										c-2.128,0-3.859,1.731-3.859,3.859v12.028c0,2.128,1.731,3.859,3.859,3.859h12.028c2.128,0,3.859-1.731,3.859-3.859V339.13
										C226.156,337.003,224.425,335.271,222.297,335.271L222.297,335.271z"/>
								</g>
							</g>
							<g>
								<g>
									<path style="fill:#FFFFFF;" d="M210.256,341.563c0.594-0.002,1.178-0.003,1.772-0.005
										c-0.002-0.594-0.003-1.178-0.005-1.772c0.588-0.002,1.168-0.003,1.76-0.005c0.007,2.539,0.014,5.077,0.021,7.651
										c1.36-1.391,2.696-2.757,4.009-4.099c-1.067,0.003-2.197,0.006-3.334,0.009c-0.002-0.601-0.003-1.185-0.005-1.789
										c0.047,0,0.095,0,0.143,0c1.641-0.005,3.282-0.01,4.924-0.011c0.101,0,0.169-0.031,0.239-0.102
										c0.558-0.567,1.121-1.129,1.681-1.694c0.032-0.033,0.058-0.072,0.083-0.103c0.257,0.248,0.499,0.482,0.769,0.744
										c-0.045,0.03-0.089,0.05-0.121,0.082c-0.562,0.563-1.122,1.128-1.685,1.69c-0.061,0.061-0.084,0.123-0.084,0.209
										c0.007,1.645,0.011,3.291,0.016,4.936c0,0.049,0,0.099,0,0.155c-0.595,0.002-1.179,0.003-1.781,0.005
										c-0.003-1.135-0.006-2.274-0.009-3.377c-1.356,1.34-2.72,2.689-4.084,4.038c0.006,0.011,0.013,0.021,0.019,0.032
										c2.534-0.007,5.067-0.014,7.609-0.021c0.002,0.592,0.003,1.171,0.005,1.76c-0.58,0.002-1.156,0.003-1.746,0.005
										c0.002,0.605,0.003,1.201,0.005,1.805c-0.601,0.002-1.189,0.003-1.786,0.005c-0.002-0.597-0.003-1.19-0.005-1.797
										c-2.205,0.006-4.4,0.012-6.609,0.019c-0.006-2.201-0.012-4.388-0.018-6.584c-0.598,0.002-1.183,0.003-1.776,0.005
										C210.259,342.756,210.257,342.168,210.256,341.563z"/>
								</g>
							</g>
						</g>
						<g>
							<g>
								<g>
									<g>
										<path style="fill:#D18654;" d="M217.636,374.059c-1.321,0-2.395-1.074-2.395-2.395v-13.651
											c0-1.321,1.074-2.395,2.395-2.395h13.651c1.321,0,2.395,1.074,2.395,2.395v13.651c0,1.321-1.074,2.395-2.395,2.395
											H217.636z"/>
									</g>
									<g>
										<path style="fill:#D18654;" d="M231.288,356.278c0.958,0,1.734,0.776,1.734,1.734v13.651c0,0.958-0.777,1.734-1.734,1.734
											h-13.651c-0.958,0-1.734-0.777-1.734-1.734v-13.651c0-0.958,0.777-1.734,1.734-1.734H231.288 M231.288,354.957h-13.651
											c-1.685,0-3.055,1.371-3.055,3.055v13.651c0,1.685,1.371,3.055,3.055,3.055h13.651c1.685,0,3.055-1.371,3.055-3.055
											v-13.651C234.343,356.328,232.973,354.957,231.288,354.957L231.288,354.957z"/>
									</g>
								</g>
							</g>
							<g>
								<g>
									
										<rect x="217.463" y="365.265" transform="matrix(0.7071 -0.7071 0.7071 0.7071 -193.4474 265.1577)" style="fill:#FFFFFF;" width="11.774" height="1.651"/>
								</g>
								<g>
									
										<rect x="225.55" y="362.722" transform="matrix(0.7071 -0.7071 0.7071 0.7071 -190.9048 266.2108)" style="fill:#C2E2FD;" width="0.684" height="1.651"/>
								</g>
								<g>
									<path style="fill:#FFFFFF;" d="M223.713,361.269c-0.958,0.457-0.929,0.428-1.386,1.386
										c-0.457-0.958-0.428-0.929-1.386-1.386c0.958-0.457,0.929-0.428,1.386-1.386
										C222.784,360.841,222.755,360.812,223.713,361.269z"/>
								</g>
								<g>
									<path style="fill:#FFFFFF;" d="M230.508,366.28c-1.087,0.518-1.054,0.485-1.572,1.572
										c-0.518-1.087-0.485-1.054-1.572-1.572c1.087-0.518,1.054-0.485,1.572-1.572
										C229.454,365.795,229.421,365.762,230.508,366.28z"/>
								</g>
								<g>
									<path style="fill:#FFFFFF;" d="M227.076,359.73c-0.651,0.31-0.631,0.291-0.942,0.942c-0.31-0.651-0.291-0.631-0.942-0.942
										c0.651-0.31,0.631-0.291,0.942-0.942C226.445,359.439,226.425,359.419,227.076,359.73z"/>
								</g>
							</g>
						</g>
						<path style="opacity:0.55;fill:#E192F4;" d="M214.989,356.516c-0.252,0.444-0.408,0.95-0.408,1.497v13.651
							c0,1.182,0.682,2.199,1.668,2.706c0.58-0.726,0.94-1.634,0.937-2.635l-0.032-11.563
							C217.15,358.595,216.272,357.238,214.989,356.516z"/>
						<g>
							<path style="fill:#FDC358;" d="M215.183,370.734c0.006,2.333-1.88,4.23-4.214,4.237l-11.563,0.032
								c-2.333,0.006-4.23-1.88-4.237-4.214l-0.032-11.563c-0.007-2.333,1.88-4.23,4.213-4.237l11.563-0.032
								c2.333-0.006,4.23,1.88,4.237,4.214L215.183,370.734z"/>
							<g>
								<path style="fill:#FFFFFF;" d="M198.788,359.901c1.679-0.208,3.338-0.379,4.997-0.042c1.409,0.286,2.359,1.305,2.545,2.669
									c0.204,1.5-0.477,2.858-1.764,3.514c-0.841,0.429-1.743,0.558-2.674,0.541c-0.224-0.004-0.447,0.002-0.717,0.003
									c0.007,1.244,0.013,2.467,0.02,3.713c-0.805,0.004-1.563,0.008-2.351,0.012C198.825,366.86,198.807,363.411,198.788,359.901
									z M201.183,364.691c0.665,0.082,1.295,0.098,1.895-0.181c0.65-0.303,0.98-0.955,0.886-1.724
									c-0.08-0.65-0.544-1.141-1.269-1.226c-0.496-0.058-1.004-0.006-1.529-0.004C201.172,362.615,201.177,363.63,201.183,364.691
									z"/>
								<path style="fill:#FFFFFF;" d="M211.924,362.895c-0.136,0.538-0.267,1.056-0.392,1.552c-0.5-0.116-0.972-0.246-1.453-0.329
									c-0.215-0.037-0.472-0.032-0.665,0.055c-0.179,0.081-0.39,0.282-0.415,0.454c-0.024,0.169,0.123,0.437,0.276,0.542
									c0.275,0.186,0.613,0.277,0.921,0.418c0.371,0.17,0.766,0.308,1.101,0.533c1.361,0.916,1.327,2.857-0.054,3.743
									c-0.851,0.546-1.807,0.651-2.777,0.548c-0.651-0.069-1.291-0.252-1.99-0.394c0.156-0.658,0.288-1.215,0.398-1.679
									c0.749,0.144,1.46,0.292,2.176,0.408c0.17,0.028,0.388-0.008,0.53-0.099c0.159-0.102,0.347-0.295,0.357-0.458
									c0.011-0.185-0.115-0.438-0.264-0.56c-0.2-0.163-0.481-0.225-0.724-0.336c-0.423-0.192-0.874-0.343-1.261-0.591
									c-1.351-0.865-1.387-2.643-0.097-3.605C208.633,362.319,210.634,362.214,211.924,362.895z"/>
							</g>
						</g>
						<path style="opacity:0.55;fill:#E192F4;" d="M202.565,374.994c-0.893-1.855-2.648-3.215-4.759-3.534l0.498-16.321
							c-1.822,0.473-3.172,2.117-3.166,4.087l0.032,11.563c0.006,2.334,1.903,4.22,4.237,4.214L202.565,374.994z"/>
						<g>
							<g>
								<path style="fill:#8A81C0;" d="M234.314,374.826l-38.668-0.234l1.495-48.952c0.001-0.029-0.006-0.057-0.006-0.086
									c0.038-0.421-0.092-0.854-0.404-1.186l-4.629-4.92c-0.581-0.617-1.55-0.647-2.166-0.066c-0.617,0.58-0.646,1.55-0.067,2.167
									l4.194,4.457l-1.527,50.026c-0.026,0.846,0.639,1.553,1.485,1.579l40.2,0.281c0.846,0.026,1.553-0.639,1.579-1.485
									C235.826,375.559,235.161,374.852,234.314,374.826z"/>
								<path style="fill:#8A81C0;" d="M229.059,382.149l0.136-0.111c0.439-0.36,0.505-1.014,0.145-1.453l-3.493-4.267
									c-0.36-0.439-1.014-0.505-1.453-0.145l-0.136,0.111c-0.439,0.36-0.505,1.014-0.145,1.453l3.493,4.267
									C227.966,382.443,228.619,382.508,229.059,382.149z"/>
							</g>
							<g>
								<path style="fill:#44377F;" d="M201.207,375.746c-0.006,3.512-2.857,6.354-6.368,6.349
									c-3.511-0.005-6.354-2.857-6.349-6.368c0.005-3.511,2.856-6.354,6.368-6.349
									C198.37,369.384,201.212,372.235,201.207,375.746z"/>
								<path style="fill:#2F276B;" d="M197.504,375.74c-0.002,1.467-1.193,2.654-2.66,2.652c-1.467-0.002-2.654-1.193-2.652-2.66
									c0.002-1.467,1.193-2.654,2.66-2.652C196.319,373.083,197.506,374.273,197.504,375.74z"/>
							</g>
						</g>
					</g>
					<g>
						<g>
							<polyline style="fill:#FBD4AD;" points="385.243,354.326 384.549,360.705 380.688,360.561 381.369,354.039 							"/>
							<path style="fill:#3E327A;" d="M380.046,364.724c1.391-0.17,1.736-0.245,3.378-0.255c2.157-0.01,2.179-0.133,1.889-2.456
								c-0.097-0.795-0.266-1.43-0.695-1.909c-0.987,0.54-2.417,0.258-2.621-0.404c-0.204-0.662-0.654-0.945-0.864-0.887
								c-0.363,0.1-0.692,0.673-0.95,1.142c-0.3,0.55-0.676,2.041-2.745,2.69C372.375,364.235,377.335,365.055,380.046,364.724z"/>
						</g>
						<g>
							<polyline style="fill:#FBD4AD;" points="403.266,354.326 402.572,360.705 398.712,360.561 399.392,354.039 							"/>
							<path style="fill:#3E327A;" d="M398.069,364.724c1.391-0.17,1.736-0.245,3.378-0.255c2.157-0.01,2.179-0.133,1.889-2.456
								c-0.097-0.795-0.266-1.43-0.695-1.909c-0.987,0.54-2.417,0.258-2.621-0.404c-0.204-0.662-0.654-0.945-0.864-0.887
								c-0.363,0.1-0.692,0.673-0.95,1.142c-0.3,0.55-0.73,1.889-2.745,2.69C393.884,363.273,395.358,365.055,398.069,364.724z"/>
						</g>
						<path style="fill:#FBD4AD;" d="M371.162,250.552c-1.924-1.343-10.509-9.265-10.509-9.265s0.551-2.49,0.226-3.221
							c-0.143-0.309-0.362-0.935-0.867-1.357c0,0-1.611-1.181-2.041-1.235c-0.429-0.054-0.268,0.778-0.107,1.101
							c0.162,0.322,1.485,1.574,1.485,1.574c0.068,0.128,0.105,0.249,0.083,0.325c-0.015,0.075-0.105,0.045-0.242-0.061
							c-0.513-0.378-1.712-1.751-2.527-2.535c-1.034-0.989-2.034-1.667-2.29-1.68c-0.46-0.023-0.452,0.401-0.384,0.507
							c-0.098,0-1.162,0.015-1.019,0.634c0,0-0.077,0.018,0.202,0.524c0,0-0.573,0.649-0.061,1.365c0,0.008,1.386,2.838,1.386,2.845
							c0.528,0.732,1.607,2.528,3.825,2.875c0,0,7.643,11.248,9.748,12.147c2.105,0.898,10.155,4.693,10.155,4.693l0.709-5.975
							C378.933,253.811,373.086,251.895,371.162,250.552z"/>
						<path style="fill:#3E327A;" d="M381.554,289.81c0,0,15.013,4.786,26.629,2.455c0,0,1.116,15.924-4.111,65.707l-6.101-0.157
							c0,0-1.737-10.207-2.689-51.36l-1.263-0.109c0,0-4.782,34.941-7.989,51.626l-6.922-0.272
							C379.107,357.701,378.934,304.794,381.554,289.81z"/>
						<path style="fill:#FBD4AD;" d="M412.407,262.144c0,0,4.571,11.026,5.109,14.119c0.538,3.092-9.95,7.261-9.95,7.261
							l-1.546-3.227l5.758-4.571l-5.758-11.564L412.407,262.144z"/>
						<path style="fill:#C4B8F8;" d="M373.568,258.874c0.293-2.535,0.939-5.214,1.329-6.69c0.164-0.621,0.767-1.036,1.401-0.935
							c5.946,0.948,12.189-1.245,19.032-1.879c1.615-0.15,7.799-0.014,11.429,2.109c3.404,1.991,6.216,7.314,7.425,10.319
							c0.3,0.744-0.16,1.573-0.948,1.723c-0.718,0.137-1.638,0.296-2.607,0.421c-0.669,0.086-1.163,0.668-1.122,1.341
							c0.55,9.088,0.666,23.478,0.689,27.681c0.004,0.671-0.508,1.24-1.177,1.285c-10.592,0.715-23.977-2.151-27.845-3.05
							c-0.626-0.145-1.045-0.727-0.981-1.367c0.458-4.518,1.555-15.539,1.802-27.897c0.015-0.739-0.604-1.335-1.343-1.299
							c-2.427,0.116-4.692-0.146-6.01-0.349C373.961,260.183,373.489,259.559,373.568,258.874z"/>
						<path style="fill:#FBD4AD;" d="M388.981,235.77c0,0-0.739,2.353-0.94,3.429c-0.202,1.075-1.3,1.28-1.412,1.613
							c-0.096,0.285,0.538,1.075,0.538,1.075s-1.412,3.093-0.538,4.101c0.874,1.009,4.601,1.003,4.601,1.003l0.088,3.199
							c0,0,3.042,2.132,6.942-0.423v-3.039c0,0,2.756-6.185,0.268-9.883C396.041,233.148,388.981,235.77,388.981,235.77z"/>
						<path id="XMLID_34_" style="fill:#324273;" d="M391.075,237.875c0.517,0.245,0.837,0.776,0.767,1.344
							c-0.12,0.967-0.241,2.348-0.047,2.931c0.04,0.12,0.205,0.247,0.435,0.256c0.228,0.008,0.349-0.121,0.395-0.225
							c0.159-0.356,0.329-1.229,0.431-1.816c0.131-0.752,0.778-1.256,1.616-0.996c0.151,0.047,0.482,0.261,0.625,0.412
							c0.972,1.034-0.9,2.414-1.477,3.365c-0.407,0.67-0.499,2.713-0.219,3.062c0.916,1.144,2.95,1.754,4.576,1.126
							c1.626-0.628,4.088-4.436,4.918-7.084c0.829-2.648-0.288-5.053-0.822-5.561c-0.264-0.251-0.517-0.397-0.705-0.481
							c-0.2-0.089-0.35-0.261-0.422-0.468c-0.313-0.904-1.468-3.223-5.161-3.645c-4.607-0.527-7.185,2.523-8.005,4.105
							c-0.533,1.028,0.298,1.407,0.945,1.546c0.356,0.077,0.638,0.343,0.76,0.686C389.84,236.874,390.209,237.465,391.075,237.875z"
							/>
					</g>
				</g>
			</g>
		</g>
		<g>
			<g>
				<path style="fill:#A796FF;" d="M83.012,167.434c-4.002,0-5.584,1.654-5.584,5.211c0,0.327-0.622,0.327-0.622,0
					c0-3.558-1.266-5.211-5.584-5.211c-0.323,0-0.323-0.623,0-0.623c4.452,0,5.584-2.061,5.584-5.205c0-0.327,0.622-0.327,0.622,0
					c0,3.745,1.515,5.205,5.584,5.205C83.335,166.81,83.335,167.434,83.012,167.434z"/>
			</g>
			<g>
				<path style="fill:#A796FF;" d="M237.359,148.08c-4.002,0-5.584,1.654-5.584,5.211c0,0.327-0.622,0.327-0.622,0
					c0-3.558-1.266-5.211-5.584-5.211c-0.323,0-0.323-0.623,0-0.623c4.452,0,5.584-2.061,5.584-5.205c0-0.327,0.622-0.327,0.622,0
					c0,3.745,1.515,5.205,5.584,5.205C237.681,147.457,237.681,148.08,237.359,148.08z"/>
			</g>
			<g>
				<path style="fill:#A796FF;" d="M136.793,142.467c-5.972,0-8.333,2.467-8.333,7.777c0,0.488-0.928,0.488-0.928,0
					c0-5.309-1.889-7.777-8.334-7.777c-0.482,0-0.481-0.93,0-0.93c6.643,0,8.333-3.076,8.333-7.768c0-0.488,0.928-0.488,0.928,0
					c0,5.588,2.261,7.768,8.333,7.768C137.275,141.537,137.275,142.467,136.793,142.467z"/>
			</g>
			<g>
				<path style="fill:#A796FF;" d="M319.521,129.875c-5.972,0-8.333,2.467-8.333,7.777c0,0.488-0.928,0.488-0.928,0
					c0-5.309-1.889-7.777-8.333-7.777c-0.482,0-0.482-0.93,0-0.93c6.643,0,8.333-3.076,8.333-7.768c0-0.488,0.928-0.488,0.928,0
					c0,5.588,2.261,7.768,8.333,7.768C320.003,128.945,320.003,129.875,319.521,129.875z"/>
			</g>
			<g>
				<path style="fill:#A796FF;" d="M421.888,182.006c-5.972,0-8.333,2.467-8.333,7.777c0,0.488-0.928,0.488-0.928,0
					c0-5.309-1.889-7.777-8.333-7.777c-0.482,0-0.482-0.93,0-0.93c6.643,0,8.333-3.076,8.333-7.768c0-0.488,0.928-0.488,0.928,0
					c0,5.588,2.261,7.768,8.333,7.768C422.37,181.076,422.37,182.006,421.888,182.006z"/>
			</g>
			<g>
				<path style="fill:#A796FF;" d="M104.086,211.319c-4.57,0-6.376,1.888-6.376,5.95c0,0.373-0.71,0.373-0.71,0
					c0-4.062-1.446-5.95-6.376-5.95c-0.369,0-0.368-0.712,0-0.712c5.083,0,6.376-2.353,6.376-5.943c0-0.373,0.71-0.373,0.71,0
					c0,4.276,1.73,5.943,6.376,5.943C104.455,210.607,104.455,211.319,104.086,211.319z"/>
			</g>
			<g>
				<path style="fill:#A796FF;" d="M72.516,239.162c-4.57,0-6.376,1.888-6.376,5.95c0,0.373-0.71,0.373-0.71,0
					c0-4.062-1.446-5.95-6.376-5.95c-0.369,0-0.368-0.712,0-0.712c5.083,0,6.376-2.353,6.376-5.943c0-0.373,0.71-0.373,0.71,0
					c0,4.276,1.73,5.943,6.376,5.943C72.885,238.45,72.885,239.162,72.516,239.162z"/>
			</g>
			<g>
				<path style="fill:#A796FF;" d="M448.353,241.783c-4.57,0-6.376,1.888-6.376,5.95c0,0.373-0.71,0.373-0.71,0
					c0-4.062-1.446-5.95-6.376-5.95c-0.369,0-0.368-0.712,0-0.712c5.083,0,6.376-2.353,6.376-5.943c0-0.373,0.71-0.373,0.71,0
					c0,4.276,1.73,5.943,6.376,5.943C448.722,241.072,448.722,241.783,448.353,241.783z"/>
			</g>
		</g>
	</g>
</g>
<g id="DESIGNED_BY_FREEPIK">
	<g>
		<g id="XMLID_1_">
			<g id="XMLID_20_">
				<path id="XMLID_28_" style="fill:#1D262D;" d="M260.104,472.332c-0.432,0.443-0.803,0.931-1.108,1.453l-0.465-0.241
					c-0.067-0.298-0.349-0.503-0.659-0.466c-0.331,0.039-0.567,0.339-0.529,0.67c0.039,0.331,0.339,0.568,0.67,0.529
					c0.066-0.008,0.127-0.026,0.184-0.052l0.451,0.234c-0.251,0.554-0.433,1.139-0.539,1.744l0.747,0.132
					c0.23-1.306,0.85-2.507,1.792-3.473L260.104,472.332z"/>
				<path id="XMLID_27_" style="fill:#1D262D;" d="M265.592,470.03c-0.171,0-0.341,0.006-0.51,0.017l-0.074-0.626
					c0.188-0.149,0.296-0.389,0.266-0.645c-0.046-0.393-0.402-0.674-0.795-0.628c-0.393,0.046-0.674,0.402-0.628,0.795
					c0.03,0.254,0.189,0.461,0.404,0.564l0.074,0.624c-0.714,0.116-1.403,0.332-2.06,0.646l0.327,0.684
					c0.934-0.447,1.942-0.673,2.995-0.673c0.496,0,0.993,0.053,1.475,0.158l0.161-0.741
					C266.692,470.088,266.142,470.03,265.592,470.03z"/>
				<path id="XMLID_26_" style="fill:#1D262D;" d="M272.194,472.577c0.331-0.04,0.566-0.341,0.526-0.672
					c-0.04-0.331-0.341-0.566-0.672-0.526c-0.309,0.038-0.535,0.304-0.53,0.609l-0.416,0.363c-0.418-0.43-0.889-0.813-1.408-1.139
					l-0.404,0.641c1.134,0.715,2.021,1.726,2.563,2.925l0.69-0.313c-0.251-0.554-0.567-1.072-0.942-1.545l0.402-0.351
					C272.065,472.582,272.129,472.585,272.194,472.577z"/>
				<path id="XMLID_25_" style="fill:#1D262D;" d="M265.044,480.238c-0.386,0.023-0.775,0.035-1.157,0.035
					c-0.88,0-1.733-0.061-2.478-0.179c-0.39-0.062-0.846-0.155-1.27-0.292c1.046,1.861,3.069,3.125,5.388,3.125
					c2.855,0,5.262-1.916,5.95-4.504c-0.682,0.449-1.505,0.825-2.459,1.123C267.839,479.913,266.463,480.153,265.044,480.238z"/>
				<path id="XMLID_21_" style="fill:#1D262D;" d="M265.592,471.546c-3.352,0-6.08,2.666-6.08,5.944
					c0,0.426,0.046,0.849,0.137,1.261c0.673,0.483,2.706,0.89,5.348,0.731c2.879-0.173,5.297-0.957,6.672-2.159
					c-0.006-0.195-0.021-0.39-0.045-0.582C271.244,473.779,268.65,471.546,265.592,471.546z M263.432,478.06
					c-1.02,0-1.85-0.83-1.85-1.85c0-1.02,0.83-1.85,1.85-1.85c1.02,0,1.85,0.83,1.85,1.85
					C265.282,477.231,264.452,478.06,263.432,478.06z M268.17,477.152c-0.75,0-1.36-0.61-1.36-1.36c0-0.75,0.61-1.361,1.36-1.361
					c0.75,0,1.361,0.61,1.361,1.361C269.53,476.542,268.92,477.152,268.17,477.152z"/>
			</g>
			<path id="XMLID_18_" style="fill:#1D262D;" d="M281.595,473.413c-0.295-0.116-0.805-0.309-1.382-0.237
				c-0.551,0.068-0.844,0.34-0.844,1.007v0.866h2.228v1.717h-2.228v5.455h-1.932v-5.455h-1.34v-1.717h1.34v-0.888
				c0-1.68,0.896-2.783,2.568-2.783c0.643,0,1.157,0.122,1.59,0.308L281.595,473.413z"/>
			<path id="XMLID_16_" style="fill:#1D262D;" d="M286.298,476.745c-0.177-0.03-0.358-0.046-0.526-0.046
				c-0.896,0-1.51,0.548-1.51,1.613v3.908h-1.932v-7.172h1.873v0.785c0.451-0.674,1.14-0.977,2.021-0.977
				c0.414,0,0.848,0.128,1.094,0.337L286.298,476.745z"/>
			<path id="XMLID_13_" style="fill:#1D262D;" d="M293.965,478.623c0,0.222-0.015,0.489-0.037,0.651h-5.085
				c0.207,1.036,0.933,1.488,1.843,1.488c0.622,0,1.295-0.252,1.813-0.688l1.133,1.243c-0.814,0.748-1.85,1.088-3.057,1.088
				c-2.198,0-3.723-1.495-3.723-3.753c0-2.257,1.48-3.797,3.627-3.797C292.544,474.856,293.958,476.388,293.965,478.623z
				 M288.851,477.957h3.175c-0.177-0.918-0.733-1.436-1.562-1.436C289.554,476.521,289.021,477.069,288.851,477.957z"/>
			<path id="XMLID_10_" style="fill:#1D262D;" d="M301.618,478.623c0,0.222-0.015,0.489-0.037,0.651h-5.085
				c0.207,1.036,0.933,1.488,1.843,1.488c0.622,0,1.295-0.252,1.814-0.688l1.132,1.243c-0.814,0.748-1.85,1.088-3.057,1.088
				c-2.198,0-3.723-1.495-3.723-3.753c0-2.257,1.48-3.797,3.627-3.797C300.197,474.856,301.611,476.388,301.618,478.623z
				 M296.504,477.957h3.175c-0.178-0.918-0.733-1.436-1.562-1.436C297.207,476.521,296.674,477.069,296.504,477.957z"/>
			<path id="XMLID_7_" style="fill:#1D262D;" d="M309.964,478.63c0,2.154-1.495,3.775-3.471,3.775c-0.962,0-1.643-0.378-2.109-0.933
				v3.708h-1.924v-10.133h1.887v0.792c0.466-0.585,1.155-0.984,2.139-0.984C308.469,474.856,309.964,476.477,309.964,478.63z
				 M304.287,478.63c0,1.132,0.748,1.976,1.843,1.976c1.14,0,1.85-0.881,1.85-1.976c0-1.095-0.71-1.976-1.85-1.976
				C305.035,476.654,304.287,477.498,304.287,478.63z"/>
			<path id="XMLID_4_" style="fill:#1D262D;" d="M313.068,472.702c0,0.696-0.54,1.229-1.236,1.229c-0.696,0-1.229-0.533-1.229-1.229
				c0-0.696,0.533-1.243,1.229-1.243C312.527,471.458,313.068,472.006,313.068,472.702z M312.809,482.22h-1.932v-7.172h1.932V482.22
				z"/>
			<path id="XMLID_2_" style="fill:#1D262D;" d="M316.032,477.602l2.701-2.554h2.368l-3.479,3.375l3.501,3.797h-2.376l-2.716-2.901
				v2.901H314.1v-10.658h1.932V477.602z"/>
		</g>
		<g>
			<path style="fill:#1D262D;" d="M184.412,482.155V481.1c-0.527,0.718-1.391,1.23-2.387,1.23c-1.846,0-3.149-1.406-3.149-3.706
				c0-2.256,1.289-3.721,3.149-3.721c0.952,0,1.816,0.469,2.387,1.245v-3.765h1.099v9.77H184.412z M184.412,480.236v-3.208
				c-0.395-0.615-1.245-1.143-2.124-1.143c-1.421,0-2.27,1.172-2.27,2.739c0,1.567,0.85,2.724,2.27,2.724
				C183.168,481.349,184.017,480.852,184.412,480.236z"/>
			<path style="fill:#1D262D;" d="M186.932,478.61c0-2.051,1.465-3.706,3.486-3.706c2.139,0,3.398,1.67,3.398,3.794v0.279h-5.727
				c0.088,1.333,1.025,2.446,2.549,2.446c0.805,0,1.626-0.322,2.182-0.893l0.527,0.718c-0.703,0.703-1.655,1.084-2.812,1.084
				C188.44,482.331,186.932,480.822,186.932,478.61z M190.403,475.813c-1.509,0-2.256,1.274-2.314,2.358h4.643
				C192.718,477.116,192.015,475.813,190.403,475.813z"/>
			<path style="fill:#1D262D;" d="M194.607,481.217l0.571-0.791c0.469,0.542,1.362,1.011,2.329,1.011c1.084,0,1.67-0.513,1.67-1.216
				c0-1.714-4.38-0.659-4.38-3.281c0-1.098,0.952-2.036,2.636-2.036c1.201,0,2.051,0.454,2.622,1.026l-0.513,0.762
				c-0.424-0.513-1.201-0.894-2.109-0.894c-0.967,0-1.567,0.483-1.567,1.113c0,1.553,4.38,0.527,4.38,3.281
				c0,1.187-0.952,2.139-2.783,2.139C196.306,482.331,195.325,481.979,194.607,481.217z"/>
			<path style="fill:#1D262D;" d="M201.477,473.337c0-0.41,0.337-0.747,0.732-0.747c0.41,0,0.747,0.337,0.747,0.747
				c0,0.41-0.337,0.732-0.747,0.732C201.814,474.069,201.477,473.747,201.477,473.337z M201.667,482.155v-7.075h1.099v7.075H201.667
				z"/>
			<path style="fill:#1D262D;" d="M204.582,483.971l0.556-0.82c0.586,0.703,1.289,0.967,2.3,0.967c1.172,0,2.27-0.571,2.27-2.124
				v-1.011c-0.513,0.718-1.377,1.26-2.373,1.26c-1.845,0-3.149-1.377-3.149-3.662c0-2.27,1.289-3.677,3.149-3.677
				c0.952,0,1.802,0.469,2.373,1.245v-1.069h1.098v6.87c0,2.344-1.641,3.076-3.369,3.076
				C206.237,485.026,205.417,484.792,204.582,483.971z M209.709,480.119v-3.091c-0.381-0.615-1.23-1.143-2.109-1.143
				c-1.421,0-2.27,1.128-2.27,2.695c0,1.553,0.849,2.695,2.27,2.695C208.478,481.276,209.328,480.734,209.709,480.119z"/>
			<path style="fill:#1D262D;" d="M217.413,482.155v-4.629c0-1.245-0.63-1.641-1.582-1.641c-0.865,0-1.685,0.527-2.095,1.099v5.17
				h-1.099v-7.075h1.099v1.025c0.498-0.586,1.464-1.201,2.519-1.201c1.48,0,2.256,0.747,2.256,2.285v4.966H217.413z"/>
			<path style="fill:#1D262D;" d="M219.932,478.61c0-2.051,1.465-3.706,3.486-3.706c2.139,0,3.398,1.67,3.398,3.794v0.279h-5.727
				c0.088,1.333,1.025,2.446,2.549,2.446c0.806,0,1.626-0.322,2.183-0.893l0.527,0.718c-0.703,0.703-1.655,1.084-2.812,1.084
				C221.441,482.331,219.932,480.822,219.932,478.61z M223.404,475.813c-1.509,0-2.256,1.274-2.314,2.358h4.643
				C225.718,477.116,225.015,475.813,223.404,475.813z"/>
			<path style="fill:#1D262D;" d="M233.35,482.155V481.1c-0.527,0.718-1.392,1.23-2.388,1.23c-1.846,0-3.149-1.406-3.149-3.706
				c0-2.256,1.289-3.721,3.149-3.721c0.952,0,1.817,0.469,2.388,1.245v-3.765h1.098v9.77H233.35z M233.35,480.236v-3.208
				c-0.396-0.615-1.245-1.143-2.124-1.143c-1.421,0-2.27,1.172-2.27,2.739c0,1.567,0.849,2.724,2.27,2.724
				C232.105,481.349,232.954,480.852,233.35,480.236z"/>
			<path style="fill:#1D262D;" d="M239.692,482.155v-9.77h1.098v3.765c0.572-0.776,1.421-1.245,2.388-1.245
				c1.845,0,3.149,1.465,3.149,3.721c0,2.299-1.304,3.706-3.149,3.706c-0.996,0-1.86-0.513-2.388-1.23v1.055H239.692z
				 M242.9,481.349c1.436,0,2.285-1.157,2.285-2.724c0-1.568-0.85-2.739-2.285-2.739c-0.864,0-1.728,0.527-2.109,1.143v3.208
				C241.171,480.852,242.036,481.349,242.9,481.349z"/>
			<path style="fill:#1D262D;" d="M247.528,483.927c0.161,0.073,0.425,0.117,0.601,0.117c0.483,0,0.805-0.161,1.055-0.747
				l0.469-1.069l-2.959-7.148h1.187l2.358,5.801l2.344-5.801h1.201l-3.545,8.51c-0.425,1.025-1.143,1.421-2.08,1.435
				c-0.234,0-0.601-0.044-0.805-0.103L247.528,483.927z"/>
		</g>
	</g>
</g>
</svg>
